<?xml version="1.0" encoding="UTF-8"?>
<svg xmlns="http://www.w3.org/2000/svg" xmlns:xlink="http://www.w3.org/1999/xlink" height="200px" preserveAspectRatio="xMidYMid" style="margin:auto;background:#fff;display:block;" viewBox="0 0 100 100" width="200px">
	<g transform="rotate(0 50 50)">
		<rect fill="#000000" height="12" rx="3" ry="6" width="6" x="47" y="24">
		</rect>
	</g>
	<g transform="rotate(30 50 50)">
		<rect fill="#000000" height="12" rx="3" ry="6" width="6" x="47" y="24">
		</rect>
	</g>
	<g transform="rotate(60 50 50)">
		<rect fill="#000000" height="12" rx="3" ry="6" width="6" x="47" y="24">
		</rect>
	</g>
	<g transform="rotate(90 50 50)">
		<rect fill="#000000" height="12" rx="3" ry="6" width="6" x="47" y="24">
		</rect>
	</g>
	<g transform="rotate(120 50 50)">
		<rect fill="#000000" height="12" rx="3" ry="6" width="6" x="47" y="24">
		</rect>
	</g>
	<g transform="rotate(150 50 50)">
		<rect fill="#000000" height="12" rx="3" ry="6" width="6" x="47" y="24">
		</rect>
	</g>
	<g transform="rotate(180 50 50)">
		<rect fill="#000000" height="12" rx="3" ry="6" width="6" x="47" y="24">
		</rect>
	</g>
	<g transform="rotate(210 50 50)">
		<rect fill="#000000" height="12" rx="3" ry="6" width="6" x="47" y="24">
		</rect>
	</g>
	<g transform="rotate(240 50 50)">
		<rect fill="#000000" height="12" rx="3" ry="6" width="6" x="47" y="24">
		</rect>
	</g>
	<g transform="rotate(270 50 50)">
		<rect fill="#000000" height="12" rx="3" ry="6" width="6" x="47" y="24">
		</rect>
	</g>
	<g transform="rotate(300 50 50)">
		<rect fill="#000000" height="12" rx="3" ry="6" width="6" x="47" y="24">
		</rect>
	</g>
	<g transform="rotate(330 50 50)">
		<rect fill="#000000" height="12" rx="3" ry="6" width="6" x="47" y="24">
		</rect>
	</g>
</svg>
